<?xml version="1.0" encoding="utf-8"?>
<!-- Generator: Adobe Illustrator 16.0.4, SVG Export Plug-In . SVG Version: 6.00 Build 0)  -->
<!DOCTYPE svg PUBLIC "-//W3C//DTD SVG 1.1//EN" "http://www.w3.org/Graphics/SVG/1.1/DTD/svg11.dtd">
<svg version="1.1" id="Layer_1" xmlns="http://www.w3.org/2000/svg" xmlns:xlink="http://www.w3.org/1999/xlink" x="0px" y="0px"
	 width="100px" height="100px" viewBox="0 0 500 500" fill="#222233" xml:space="preserve">
	<path id="path1948" d="M100.732,241.696c-8.408,0.038-16.436,0.754-23.5,2.005c-20.812,3.678-24.59,11.372-24.59,25.564v18.743
		h49.18v6.247h-49.18H34.185c-14.292,0-26.806,8.592-30.723,24.934c-4.515,18.732-4.716,30.421,0,49.982
		c3.496,14.561,11.846,24.934,26.138,24.934h16.909v-22.469c0-16.233,14.046-30.551,30.724-30.551h49.12
		c13.675,0,24.59-11.258,24.59-24.99v-46.83c0-13.327-11.241-23.339-24.59-25.564C117.906,242.296,109.14,241.658,100.732,241.696z
		 M74.137,256.77c5.08,0,9.229,4.218,9.229,9.401c0,5.166-4.149,9.342-9.229,9.342c-5.098,0-9.228-4.176-9.228-9.342
		C64.909,260.987,69.039,256.77,74.137,256.77z"/>
	<path id="path1950" d="M157.076,294.256v21.84c0,16.931-14.355,31.181-30.724,31.181h-49.12c-13.456,0-24.59,11.518-24.59,24.991
		v46.828c0,13.329,11.588,21.169,24.59,24.993c15.567,4.577,30.495,5.405,49.12,0c12.381-3.585,24.59-10.8,24.59-24.993v-18.743
		h-49.12v-6.247h49.12h24.59c14.293,0,19.62-9.97,24.588-24.934c5.136-15.404,4.919-30.219,0-49.982
		c-3.529-14.228-10.273-24.934-24.588-24.934H157.076z M129.451,412.848c5.098,0,9.225,4.179,9.225,9.344
		c0,5.187-4.127,9.4-9.225,9.4c-5.082,0-9.232-4.214-9.232-9.4C120.219,417.026,124.37,412.848,129.451,412.848z"/>
		<polygon points="265.994,160.152 159.435,223.426 297.41,214.065 308.035,74.937 		"/>
			<path fill="#FFFFFF" d="M264.206,157.093c-35.52,21.091-71.04,42.182-106.56,63.273c-2.895,1.719-1.842,6.849,1.789,6.603
				c45.793-3.107,91.586-6.213,137.379-9.32c0.199-0.014,0.397-0.027,0.597-0.041c2.043-0.139,3.389-1.514,3.543-3.543
				c3.519-46.071,7.037-92.142,10.556-138.212c0.023-0.306,0.046-0.611,0.069-0.917c0.266-3.478-5.068-4.898-6.603-1.789
				c-14.014,28.405-28.027,56.811-42.041,85.216c-2.015,4.083,4.097,7.675,6.119,3.577c14.014-28.405,28.027-56.811,42.041-85.216
				c-2.201-0.596-4.402-1.192-6.603-1.789c-3.519,46.071-7.037,92.142-10.556,138.212c-0.023,0.306-0.046,0.611-0.069,0.917
				c1.181-1.181,2.362-2.362,3.543-3.543c-45.793,3.107-91.586,6.213-137.379,9.32c-0.199,0.014-0.398,0.027-0.597,0.041
				c0.596,2.201,1.192,4.402,1.789,6.603c35.52-21.091,71.04-42.182,106.559-63.273
				C271.707,160.881,268.145,154.754,264.206,157.093z"/>
		
	
		<polygon points="297.637,213.968 285.777,132.117 253.476,174.77 		"/>
			<path fill="#FFFFFF" d="M301.054,213.026c-3.953-27.284-7.906-54.567-11.859-81.851c-0.498-3.436-4.898-2.93-6.477-0.847
				c-10.768,14.218-21.534,28.436-32.302,42.653c-0.908,1.199-0.526,3.335,0.554,4.294c14.72,13.066,29.441,26.132,44.161,39.198
				c3.405,3.022,8.436-1.971,5.012-5.011c-14.721-13.066-29.441-26.132-44.161-39.198c0.185,1.431,0.369,2.862,0.554,4.294
				c10.768-14.218,21.534-28.436,32.302-42.653c-2.159-0.282-4.317-0.564-6.477-0.847c3.953,27.284,7.906,54.567,11.859,81.851
				C294.873,219.419,301.701,217.495,301.054,213.026z"/>
		
	
		<polygon points="297.799,213.968 210.915,207.148 159.896,223.25 		"/>
			<path fill="#FFFFFF" d="M297.799,210.425c-24.863-1.952-49.727-3.903-74.59-5.854c-3.921-0.308-7.842-0.616-11.763-0.923
				c-2.556-0.201-5.547,1.371-7.911,2.117c-13.687,4.32-27.374,8.639-41.06,12.959c-1.173,0.37-2.347,0.741-3.521,1.111
				c-3.678,1.161-3.193,7.238,0.942,6.96c45.769-3.081,91.538-6.162,137.306-9.242c0.199-0.014,0.397-0.027,0.597-0.04
				C302.333,217.207,302.363,210.118,297.799,210.425c-45.769,3.081-91.538,6.162-137.307,9.242
				c-0.199,0.014-0.397,0.027-0.596,0.04c0.314,2.32,0.628,4.64,0.942,6.96c11.44-3.61,22.88-7.221,34.32-10.832
				c5.3-1.673,10.601-3.346,15.9-5.018c1.692-0.534-1.044-0.196,0.574-0.069c1.58,0.124,3.16,0.248,4.739,0.372
				c26.564,2.085,53.128,4.17,79.691,6.255c0.579,0.045,1.157,0.091,1.735,0.136C302.358,217.87,302.323,210.78,297.799,210.425z"/>
		
	
		<polygon points="160.018,223.267 181.723,152.165 133.961,162.375 		"/>
			<path fill="#FFFFFF" d="M163.435,224.208c7.235-23.701,14.47-47.401,21.705-71.102c0.831-2.719-1.823-4.901-4.358-4.358
				c-15.92,3.403-31.841,6.807-47.762,10.21c-2.459,0.525-2.958,3.241-2.118,5.205c8.686,20.297,17.372,40.594,26.057,60.891
				c1.793,4.19,7.896,0.576,6.119-3.577c-8.686-20.297-17.372-40.594-26.057-60.891c-0.706,1.735-1.412,3.47-2.118,5.205
				c15.92-3.403,31.841-6.807,47.762-10.21c-1.453-1.453-2.906-2.906-4.358-4.358c-7.235,23.701-14.47,47.401-21.705,71.102
				C155.264,226.707,162.104,228.566,163.435,224.208z"/>
		
	
		<polygon points="253.465,175.007 233.495,96.782 176.343,150.354 		"/>
			<path fill="#FFFFFF" d="M256.882,174.065c-6.657-26.075-13.314-52.15-19.971-78.225c-0.679-2.66-4.023-3.343-5.922-1.563
				c-19.051,17.857-38.102,35.714-57.152,53.571c-2.024,1.896-0.882,5.14,1.563,5.922c25.708,8.218,51.415,16.436,77.122,24.654
				c4.366,1.396,6.22-5.447,1.885-6.833c-25.708-8.218-51.415-16.436-77.123-24.654c0.521,1.974,1.042,3.948,1.563,5.922
				c19.051-17.857,38.102-35.714,57.152-53.571c-1.974-0.521-3.948-1.042-5.922-1.563c6.657,26.075,13.313,52.15,19.97,78.225
				C251.178,180.375,258.013,178.496,256.882,174.065z"/>
		
	
	
		<polygon points="303.506,97.884 249.482,53.761 234.438,102.396 		"/>
		
			<path fill="#FFFFFF" d="M306.012,95.379c-18.009-14.708-36.017-29.416-54.024-44.124c-2.057-1.68-5.081-1.157-5.922,1.563
				c-5.015,16.211-10.029,32.423-15.044,48.635c-0.652,2.106,1.145,4.634,3.417,4.485c23.023-1.504,46.045-3.008,69.068-4.511
				c4.536-0.296,4.564-7.385,0-7.087c-23.022,1.504-46.045,3.008-69.068,4.511c1.139,1.495,2.278,2.99,3.417,4.485
				c5.015-16.211,10.029-32.423,15.044-48.635c-1.974,0.521-3.948,1.042-5.922,1.563C264.984,70.974,282.992,85.682,301,100.39
				C304.508,103.254,309.553,98.271,306.012,95.379z"/>
		
	
	
		<polygon points="278.242,38.029 246.467,55.587 226.421,37.794 		"/>
		
			<path fill="#FFFFFF" d="M276.454,34.969c-10.592,5.853-21.184,11.706-31.775,17.559c1.432,0.185,2.863,0.37,4.294,0.554
				c-6.682-5.931-13.364-11.862-20.046-17.793c-0.835,2.016-1.67,4.032-2.505,6.049c17.274,0.078,34.548,0.156,51.821,0.234
				c4.571,0.021,4.568-7.066,0-7.087c-17.273-0.078-34.547-0.156-51.821-0.234c-2.962-0.013-4.865,3.954-2.505,6.049
				c6.682,5.931,13.364,11.862,20.046,17.793c1.223,1.085,2.831,1.363,4.294,0.554c10.592-5.853,21.183-11.706,31.774-17.559
				C284.03,38.878,280.456,32.757,276.454,34.969z"/>
		
	
	
		<polygon points="121.395,186.226 134.706,161.95 123.937,133.033 		"/>
		
			<path fill="#FFFFFF" d="M124.455,188.015c2.535-4.623,5.069-9.245,7.604-13.867c1.481-2.701,2.962-5.402,4.443-8.103
				c0.788-1.437,2.249-3.354,1.607-5.076c-3.585-9.626-7.17-19.253-10.755-28.879c-1.383-3.714-6.763-3.186-6.96,0.942
				c-0.847,17.731-1.694,35.462-2.542,53.193c-0.218,4.57,6.869,4.549,7.087,0c0.847-17.731,1.694-35.462,2.542-53.193
				c-2.32,0.314-4.64,0.628-6.96,0.942c3.589,9.639,7.179,19.278,10.769,28.917c0.119-0.91,0.238-1.82,0.357-2.73
				c-4.437,8.092-8.874,16.184-13.311,24.276C116.137,188.446,122.257,192.022,124.455,188.015z"/>
		
	
	
		<path d="M123.22,132.117l10.835,30.729l47.071-10.56l53.745-49.947l15.166-48.174l-23.883-16.862l-40.598,15.194
			c-12.793,11.898-37.615,35.438-38.51,35.882C146.161,88.832,130.657,118.137,123.22,132.117z"/>
		
			<path fill="#FFFFFF" d="M119.804,133.059c3.611,10.243,7.223,20.486,10.835,30.729c0.666,1.888,2.371,2.921,4.358,2.475
				c12-2.692,23.999-5.384,35.998-8.076c3.361-0.754,9.938-0.887,12.637-3.396c2.317-2.153,4.634-4.306,6.951-6.459
				c11.167-10.378,22.334-20.756,33.501-31.134c3.938-3.66,7.876-7.319,11.814-10.979c1.982-1.843,2.596-3.593,3.405-6.162
				c4.717-14.983,9.434-29.967,14.151-44.95c0.506-1.605-0.353-3.101-1.628-4.001c-4.79-3.382-9.58-6.763-14.369-10.145
				c-2.531-1.787-8.887-8.331-12.488-6.983c-12.083,4.522-24.166,9.044-36.249,13.566c-1.359,0.509-2.718,1.018-4.077,1.526
				c-3.683,1.378-7.212,6.169-10.051,8.831c-7.587,7.114-15.151,14.253-22.757,21.346c-2.121,1.978-4.237,3.962-6.404,5.89
				c-1.426,1.269,0.731-0.672-0.96,0.799c-0.68,0.592-1.194,1.653-1.653,2.421c-4.469,7.484-8.44,15.292-12.547,22.977
				c-3.381,6.326-6.742,12.663-10.11,18.996c-2.145,4.033,3.973,7.613,6.119,3.577c7.276-13.681,14.36-27.497,22.06-40.947
				c0.415-0.725,0.84-1.444,1.285-2.151c0.36-0.571-1.875,1.49,0.135-0.075c1.548-1.205,2.951-2.64,4.388-3.969
				c5.967-5.516,11.875-11.098,17.797-16.662c3.162-2.971,6.325-5.941,9.49-8.908c1.432-1.342,2.866-2.683,4.3-4.022
				c0.957-0.894,1.81-1.649,1.008-1.349c3.985-1.491,7.971-2.983,11.957-4.475c9.466-3.543,18.931-7.085,28.397-10.628
				c-0.91-0.119-1.82-0.238-2.73-0.357c7.961,5.621,15.922,11.242,23.883,16.862c-0.542-1.334-1.085-2.667-1.628-4.001
				c-3.686,11.706-7.371,23.412-11.056,35.117c-1.368,4.344-2.735,8.688-4.103,13.032c0.767-2.437,0.649-1.303-0.845,0.086
				c-1.734,1.611-3.468,3.223-5.203,4.834c-11.167,10.378-22.334,20.756-33.501,31.134c-3.938,3.66-7.876,7.319-11.814,10.979
				c-1.612,1.499-1.947,0.919-0.019,0.486c-1.681,0.377-3.361,0.754-5.042,1.131c-13.976,3.135-27.951,6.271-41.926,9.406
				c1.453,0.825,2.906,1.649,4.358,2.475c-3.611-10.243-7.223-20.486-10.835-30.729C125.128,126.896,118.28,128.738,119.804,133.059
				z"/>
		
	
	
		<path d="M161.263,76.915c27.723-27.488,63.461-43.729,77.178-29.889c13.707,13.836-0.829,47.468-28.554,74.947
			c-27.723,27.478-63.019,44.612-76.726,30.773C119.446,138.919,133.538,104.395,161.263,76.915z"/>
		
			<path fill="#FFFFFF" d="M163.768,79.42c9.89-9.706,20.792-18.249,32.919-24.99c8.953-4.977,19.346-9.35,29.784-8.831
				c23.745,1.183,10.238,33.686,3.899,44.713c-13.553,23.576-35.598,43.917-59.611,56.512c-8.3,4.354-18.856,8.753-28.433,6.876
				c-8.305-1.627-11.088-9.482-10.904-17.079c0.229-9.466,4.543-18.812,9.006-26.952C146.577,98.457,154.762,88.447,163.768,79.42
				c3.23-3.237-1.78-8.249-5.011-5.011c-16.111,16.147-32.419,37.599-34.365,61.159c-0.63,7.629,1.558,15.735,7.528,20.824
				c6.218,5.3,14.75,5.333,22.373,3.98c10.87-1.928,21.196-7.587,30.39-13.451c11.505-7.337,21.988-16.384,31.407-26.227
				c14.852-15.521,31.638-37.816,31.098-60.486c-0.171-7.168-3.201-13.558-8.9-17.9c-5.896-4.492-14.195-4.254-21.103-3.147
				c-22.231,3.561-42.86,19.97-58.427,35.249C155.492,77.614,160.505,82.623,163.768,79.42z"/>
		
	
	
		<path d="M160.018,223.24l21.533-71.331l71.518,22.977C227.213,199.133,198.451,219.631,160.018,223.24z"/>
		
			<path fill="#FFFFFF" d="M163.435,224.182c7.178-23.777,14.355-47.554,21.533-71.331c-1.453,0.825-2.906,1.65-4.358,2.475
				c23.839,7.659,47.678,15.318,71.517,22.977c-0.521-1.974-1.042-3.948-1.563-5.922c-25.568,23.884-54.875,43.728-90.545,47.316
				c-4.502,0.453-4.546,7.544,0,7.087c37.681-3.792,68.484-24.104,95.556-49.393c2.029-1.896,0.876-5.138-1.563-5.922
				c-23.84-7.659-47.679-15.318-71.518-22.977c-1.873-0.602-3.819,0.687-4.358,2.475c-7.178,23.777-14.355,47.554-21.533,71.331
				C155.277,226.684,162.118,228.544,163.435,224.182z"/>
		
	
	
		<path d="M234.965,102.198l18.359,72.725c21.602-22.713,40.987-47.13,50.482-77.33L234.965,102.198z"/>
		
			<path fill="#FFFFFF" d="M231.549,103.14c6.12,24.242,12.239,48.483,18.359,72.725c0.644,2.551,4.103,3.483,5.922,1.563
				c21.822-23.019,41.569-48.32,51.394-78.893c0.675-2.101-1.163-4.636-3.417-4.485c-22.947,1.535-45.895,3.07-68.841,4.604
				c-4.535,0.304-4.564,7.392,0,7.087c22.947-1.535,45.894-3.07,68.841-4.604c-1.139-1.495-2.277-2.99-3.417-4.485
				c-9.442,29.385-28.608,53.654-49.571,75.766c1.974,0.521,3.948,1.042,5.922,1.563c-6.12-24.242-12.24-48.483-18.359-72.725
				C237.264,96.827,230.43,98.707,231.549,103.14z"/>
		
	
	
		<path d="M303.616,97.959c7.352-22.175,9.046-53.986-25.601-59.892l-28.43,15.702L303.616,97.959z"/>
		
			<path fill="#FFFFFF" d="M307.033,98.901c6.581-20.196,7.912-46.306-12.628-58.851c-2.682-1.638-5.688-2.792-8.658-3.779
				c-2.513-0.835-6.993-2.659-9.52-1.264c-2.372,1.31-4.743,2.62-7.114,3.929c-7.105,3.924-14.211,7.848-21.316,11.772
				c-1.86,1.028-2.484,4.12-0.717,5.565c18.01,14.73,36.021,29.46,54.03,44.19c3.506,2.867,8.551-2.116,5.012-5.011
				c-18.011-14.73-36.021-29.46-54.031-44.19c-0.239,1.855-0.478,3.71-0.717,5.565c9.477-5.234,18.953-10.468,28.43-15.702
				c-0.91,0.119-1.82,0.238-2.73,0.357c12.727,2.337,22.819,8.896,26.198,21.856c2.866,10.995,0.369,23.118-3.072,33.677
				C298.779,101.375,305.623,103.226,307.033,98.901z"/>
		
	
	
		<path d="M121.395,185.906c1.019,36.599,27.422,37.144,38.67,37.466l-25.979-60.675L121.395,185.906z"/>
		
			<path fill="#FFFFFF" d="M117.852,185.906c0.526,13.666,4.514,27.218,16.54,34.965c7.583,4.884,16.888,5.793,25.674,6.044
				c2.956,0.084,4.053-3.012,3.06-5.332c-8.66-20.225-17.32-40.45-25.979-60.675c-1.064-2.484-4.949-2.139-6.119,0
				c-4.23,7.737-8.46,15.473-12.691,23.209c-2.193,4.011,3.926,7.587,6.119,3.577c4.23-7.737,8.46-15.473,12.691-23.209
				c-2.04,0-4.08,0-6.119,0c8.66,20.225,17.32,40.45,25.979,60.675c1.02-1.777,2.04-3.555,3.06-5.332
				c-7.127-0.204-14.249-0.843-20.662-4.238c-10.876-5.757-14.025-18.268-14.465-29.685
				C124.763,181.351,117.676,181.334,117.852,185.906z"/>
		
	
	
		<path d="M235.067,102.311c16.6,10.203,50.047,30.691,50.727,31.069c1.054,0.593,14.425-22.542,17.457-35.617L235.067,102.311z"/>
		
			<path fill="#FFFFFF" d="M233.279,105.37c16.504,10.143,33.005,20.293,49.555,30.362c5.664,3.446,8.607-3.635,11.013-7.787
				c5.261-9.08,10.299-19.004,12.821-29.241c0.52-2.112-1.048-4.643-3.417-4.485c-22.728,1.516-45.456,3.032-68.184,4.548
				c-4.535,0.303-4.564,7.391,0,7.087c22.728-1.516,45.456-3.032,68.184-4.548c-1.139-1.495-2.278-2.99-3.417-4.485
				c-2.228,9.042-6.58,17.563-11.051,25.679c-1.446,2.625-3.003,5.665-4.855,7.902c-0.552,0.666,5.162,0.837,2.806-0.592
				c-0.876-0.532-1.751-1.066-2.627-1.601c-15.769-9.622-31.513-19.285-47.25-28.958C232.951,96.851,229.394,102.982,233.279,105.37
				z"/>
		
	
	
		<path d="M181.525,151.909l28.787,55.542c17.022-9.232,30.351-20.48,42.559-32.527L181.525,151.909z"/>
		
			<path fill="#FFFFFF" d="M178.466,153.697c9.596,18.514,19.191,37.027,28.787,55.542c0.905,1.747,3.223,2.165,4.848,1.271
				c16.062-8.831,30.229-20.27,43.276-33.082c1.971-1.935,0.924-5.12-1.563-5.922c-23.782-7.671-47.564-15.343-71.346-23.014
				c-4.362-1.407-6.214,5.437-1.884,6.833c23.782,7.671,47.564,15.343,71.345,23.014c-0.521-1.974-1.042-3.948-1.563-5.922
				c-12.638,12.409-26.282,23.419-41.842,31.973c1.616,0.424,3.232,0.848,4.848,1.271c-9.596-18.514-19.191-37.027-28.787-55.542
				C182.481,146.062,176.366,149.646,178.466,153.697z"/>
		
	
	
		<path d="M133.969,162.771l-4.078,48.569c7.695,10.512,18.284,11.426,29.391,10.605
			C151.248,201.949,135.199,161.96,133.969,162.771z"/>
		
			<path fill="#FFFFFF" d="M130.426,162.771c-1.047,12.47-2.094,24.94-3.141,37.41c-0.299,3.567-2.333,10.521,0.101,13.665
				c7.963,10.286,19.521,12.47,31.896,11.644c2.066-0.138,4.333-2.204,3.417-4.485c-5.395-13.427-10.786-26.857-16.385-40.201
				c-2.148-5.12-4.308-10.241-6.656-15.273c-0.981-2.103-2.608-6.7-5.688-6.302c-4.467,0.578-4.523,7.671,0,7.087
				c-1.054,0.136-2.656-1.457-2.358-0.984c0.31,0.49,0.569,1.016,0.835,1.531c0.866,1.675,1.635,3.402,2.409,5.12
				c2.272,5.04,4.4,10.145,6.523,15.249c4.928,11.846,9.705,23.754,14.488,35.658c1.139-1.495,2.277-2.99,3.417-4.485
				c-10.687,0.714-19.969-0.633-26.886-9.567c0.346,0.835,0.692,1.67,1.038,2.505c1.359-16.19,2.718-32.379,4.078-48.569
				C137.895,158.214,130.805,158.251,130.426,162.771z"/>
		
	
	
		<path d="M249.415,53.892l57.19,8.025c-3.052-12.934-12.425-21.279-28.403-23.889L249.415,53.892z"/>
		
			<path fill="#FFFFFF" d="M248.473,57.309c19.063,2.675,38.126,5.351,57.19,8.025c2.612,0.367,5.089-1.494,4.359-4.358
				c-2.193-8.612-6.997-15.567-14.429-20.464c-4.894-3.224-14.749-7.984-20.324-4.912c-9.214,5.078-18.429,10.155-27.643,15.233
				c-4.002,2.206-0.428,8.326,3.577,6.119c9.596-5.288,19.191-10.576,28.787-15.863c-0.91,0.119-1.82,0.238-2.73,0.357
				c12.591,2.232,22.644,8.512,25.929,21.414c1.453-1.453,2.906-2.906,4.359-4.358c-19.063-2.675-38.127-5.351-57.191-8.025
				C245.89,49.849,243.963,56.676,248.473,57.309z"/>
	<path d="M327.043,384.295c0,0-13.22,7.687,9.406,10.289c27.413,3.127,41.421,2.679,71.628-3.039c0,0,7.942,4.979,19.034,9.292
		C359.393,429.86,273.854,399.156,327.043,384.295"/>
	<path d="M318.768,346.422c0,0-14.826,10.974,7.814,13.317c29.284,3.02,52.408,3.268,92.421-4.438c0,0,5.535,5.611,14.24,8.68
		C351.367,387.922,260.173,365.87,318.768,346.422"/>
	<path d="M388.525,282.177c16.686,19.21-4.384,36.497-4.384,36.497s42.367-21.87,22.91-49.259
		c-18.173-25.542-32.109-38.231,43.337-81.988C450.389,187.427,331.965,217.004,388.525,282.177"/>
	<path d="M478.088,412.308c0,0,9.782,8.061-10.773,14.297c-39.088,11.84-162.688,15.417-197.022,0.471
		c-12.343-5.368,10.804-12.821,18.084-14.385c7.595-1.646,11.933-1.339,11.933-1.339c-13.727-9.67-88.721,18.987-38.094,27.192
		C400.284,460.936,513.9,428.462,478.088,412.308"/>
	<path d="M333.398,307.182c0,0-62.87,14.933-22.265,20.355c17.146,2.295,51.325,1.775,83.161-0.892
		c26.017-2.194,52.145-6.86,52.145-6.86s-9.174,3.928-15.812,8.462c-63.843,16.789-187.179,8.979-151.672-8.197
		C308.981,305.536,333.398,307.182,333.398,307.182"/>
	<path d="M446.18,370.222c64.9-33.724,34.895-66.133,13.948-61.768c-5.134,1.068-7.423,1.996-7.423,1.996s1.906-2.986,5.545-4.278
		c41.436-14.566,73.304,42.963-13.375,65.751C444.875,371.923,445.88,371.025,446.18,370.222"/>
	<path d="M407.052,116.775c0,0,35.941,35.954-34.092,91.244c-56.159,44.351-12.804,69.639-0.023,98.531
		c-32.778-29.576-56.837-55.614-40.698-79.846C355.928,191.134,421.553,173.887,407.052,116.775"/>
	<path d="M339.776,461.609c62.297,3.987,157.958-2.213,160.224-31.689c0,0-4.354,11.173-51.485,20.048
		c-53.169,10.007-118.749,8.839-157.645,2.426C290.87,452.392,298.834,458.982,339.776,461.609"/>

</svg>
