<?xml version="1.0" encoding="utf-8"?>
<!-- Generator: Adobe Illustrator 16.0.4, SVG Export Plug-In . SVG Version: 6.00 Build 0)  -->
<!DOCTYPE svg PUBLIC "-//W3C//DTD SVG 1.1//EN" "http://www.w3.org/Graphics/SVG/1.1/DTD/svg11.dtd">
<svg version="1.1" id="Layer_1" xmlns="http://www.w3.org/2000/svg" xmlns:xlink="http://www.w3.org/1999/xlink" x="0px" y="0px"
	 width="100px" height="100px" viewBox="0 0 500 500" fill="#222233" xml:space="preserve">
<path d="M395.745,299.957c-5.556,0-10.997,0.482-16.302,1.363c-4.184-16.476-11.255-31.792-20.603-45.424
	c4.803,0.644,9.736,1,14.784,1c46.53,0,84.25-28.561,84.25-63.79c0-6.843-1.438-13.428-4.073-19.606
	c1.729,0.223,3.488,0.35,5.276,0.35c22.603,0,40.922-18.32,40.922-40.921c0-22.601-18.319-40.922-40.922-40.922
	c-7.509,0-14.538,2.031-20.587,5.561c-11.75-23.962-36.377-40.464-64.866-40.464c-28.488,0-53.115,16.501-64.867,40.464
	c-6.049-3.529-13.078-5.561-20.586-5.561c-22.6,0-40.921,18.321-40.921,40.922c0,22.601,18.321,40.921,40.921,40.921
	c1.789,0,3.547-0.127,5.277-0.35c-2.635,6.178-4.073,12.763-4.073,19.606c0,3.191,0.318,6.325,0.916,9.391
	c-15.372-5.656-31.975-8.768-49.311-8.768c-18.683,0-36.518,3.603-52.87,10.126c-0.046-1.688-0.175-4.181-0.139-4.997
	c0.009-0.168,0.306-2.824,0.286-2.993c0.203-1.212,0.439-2.42,0.683-3.625c0.776-3.823,1.855-7.583,2.966-11.318
	c10.221-34.373,23.407-65.817,13.559-102.28c-11.573-42.837-50.312-71.786-93.483-76.017C67.462-1.738,25.522,31.26,18.515,75.189
	c-7.208,45.193,25.32,86.088,71.567,87.1c20.1,0.44,20.058-30.713,0-31.151c-18.028-0.395-33.8-11.414-39.619-28.65
	c-5.915-17.517,0.645-37.616,12.676-50.908c27.418-30.292,73.979-19.04,98.325,8.741c24.763,28.256,16.787,63.584,6.024,95.265
	c-7.108,20.923-13.971,43.354-7.681,63.462c-16.202,11.217-29.98,25.689-40.372,42.482c-0.437-0.004-0.866-0.032-1.303-0.032
	C52.89,261.497,0,314.386,0,379.628c0,65.244,52.89,118.134,118.132,118.134h277.613c54.621,0,98.899-44.278,98.899-98.901
	S450.366,299.957,395.745,299.957z M397.698,128.114c7.312,0,13.24,5.928,13.24,13.239c0,7.312-5.928,13.24-13.24,13.24
	c-7.312,0-13.239-5.927-13.239-13.24C384.459,134.042,390.387,128.114,397.698,128.114z M349.553,128.114
	c7.312,0,13.239,5.928,13.239,13.239c0,7.312-5.928,13.24-13.239,13.24c-7.311,0-13.238-5.927-13.238-13.24
	C336.314,134.042,342.242,128.114,349.553,128.114z M315.854,191.582h115.544c0,24.158-25.864,43.741-57.772,43.741
	C341.72,235.323,315.854,215.739,315.854,191.582z"/>
</svg>
