<?xml version="1.0" encoding="utf-8"?>
<!-- Generator: Adobe Illustrator 16.0.4, SVG Export Plug-In . SVG Version: 6.00 Build 0)  -->
<!DOCTYPE svg PUBLIC "-//W3C//DTD SVG 1.1//EN" "http://www.w3.org/Graphics/SVG/1.1/DTD/svg11.dtd">
<svg version="1.1" id="Layer_1" xmlns="http://www.w3.org/2000/svg" xmlns:xlink="http://www.w3.org/1999/xlink" x="0px" y="0px" fill="#222233" width="100px" height="100px" viewBox="0 0 500 500" xml:space="preserve">
<g>
	<path d="M495.135,58.964C353.727,55.291,260.774,11.831,250.483,6.81V6.331c0,0-0.173,0.088-0.483,0.242
		c-0.311-0.154-0.484-0.242-0.484-0.242V6.81c-10.292,5.021-103.242,48.48-244.651,52.154
		c-19.494,183.239,21.443,284.604,89.67,356.731c64.049,67.707,145.271,77.009,154.981,77.894v0.08c0,0,0.172-0.012,0.484-0.038
		c0.311,0.026,0.483,0.038,0.483,0.038v-0.08c9.711-0.885,90.933-10.187,154.98-77.894
		C473.691,343.568,514.628,242.203,495.135,58.964z"/>
	<polygon fill="#FFFFFF" points="396.325,188.468 357.252,149.396 240.035,266.611 174.914,201.491 135.841,240.565 
		240.034,344.759 	"/>
</g>
</svg>
