<svg xmlns="http://www.w3.org/2000/svg" width="100" height="100" viewBox="0 0 500 500" fill="#223"><path d="M395.745 299.957c-5.556 0-10.997.482-16.302 1.363-4.184-16.476-11.255-31.792-20.603-45.424 4.803.644 9.736 1 14.784 1 46.53 0 84.25-28.561 84.25-63.79 0-6.843-1.438-13.428-4.073-19.606 1.729.223 3.488.35 5.276.35 22.603 0 40.922-18.32 40.922-40.921s-18.319-40.922-40.922-40.922a40.71 40.71 0 0 0-20.587 5.561c-11.75-23.962-36.377-40.464-64.866-40.464-28.488 0-53.115 16.501-64.867 40.464a40.718 40.718 0 0 0-20.586-5.561c-22.6 0-40.921 18.321-40.921 40.922 0 22.601 18.321 40.921 40.921 40.921 1.789 0 3.547-.127 5.277-.35-2.635 6.178-4.073 12.763-4.073 19.606 0 3.191.318 6.325.916 9.391a142.502 142.502 0 0 0-49.311-8.768c-18.683 0-36.518 3.603-52.87 10.126-.046-1.688-.175-4.181-.139-4.997.009-.168.306-2.824.286-2.993.203-1.212.439-2.42.683-3.625.776-3.823 1.855-7.583 2.966-11.318 10.221-34.373 23.407-65.817 13.559-102.28-11.573-42.837-50.312-71.786-93.483-76.017-44.52-4.363-86.46 28.635-93.467 72.564-7.208 45.193 25.32 86.088 71.567 87.1 20.1.44 20.058-30.713 0-31.151-18.028-.395-33.8-11.414-39.619-28.65-5.915-17.517.645-37.616 12.676-50.908 27.418-30.292 73.979-19.04 98.325 8.741 24.763 28.256 16.787 63.584 6.024 95.265-7.108 20.923-13.971 43.354-7.681 63.462a143.682 143.682 0 0 0-40.372 42.482c-.437-.004-.866-.032-1.303-.032C52.89 261.497 0 314.386 0 379.628c0 65.244 52.89 118.134 118.132 118.134h277.613c54.621 0 98.899-44.278 98.899-98.901s-44.278-98.904-98.899-98.904zm1.953-171.843c7.312 0 13.24 5.928 13.24 13.239 0 7.312-5.928 13.24-13.24 13.24s-13.239-5.927-13.239-13.24c0-7.311 5.928-13.239 13.239-13.239zm-48.145 0c7.312 0 13.239 5.928 13.239 13.239 0 7.312-5.928 13.24-13.239 13.24-7.311 0-13.238-5.927-13.238-13.24-.001-7.311 5.927-13.239 13.238-13.239zm-33.699 63.468h115.544c0 24.158-25.864 43.741-57.772 43.741-31.906 0-57.772-19.584-57.772-43.741z"/></svg>