<?xml version="1.0" encoding="utf-8"?>
<!-- Generator: Adobe Illustrator 16.0.4, SVG Export Plug-In . SVG Version: 6.00 Build 0)  -->
<!DOCTYPE svg PUBLIC "-//W3C//DTD SVG 1.1//EN" "http://www.w3.org/Graphics/SVG/1.1/DTD/svg11.dtd">
<svg version="1.1" id="Layer_1" xmlns="http://www.w3.org/2000/svg" xmlns:xlink="http://www.w3.org/1999/xlink" x="0px" y="0px"
	 width="100px" height="100px" viewBox="0 0 500 500" fill="#222233" xml:space="preserve">
<g>
	<path d="M499.999,0c-0.093-0.021-177.077,25.773-273.116,121.811c-27.871,27.872-58.146,68.786-82.778,104.951L16.052,256.879
		v53.494h82.354l91.219,91.221v82.354h53.495l30.118-128.054c36.165-24.634,77.08-54.909,104.952-82.78
		C474.226,177.077,500.021,0.092,499.999,0L499.999,0L499.999,0z M344.115,231.535c-20.89,20.89-54.762,20.89-75.651,0.002
		c-20.892-20.894-20.89-54.762,0-75.654c20.892-20.889,54.761-20.891,75.653,0.002C365.005,176.773,365.005,210.646,344.115,231.535
		z"/>
	<path d="M94.039,342.626c0,0-19.293-12.632-54.619,22.695C-16.337,421.077,3.382,496.548,3.396,496.604
		c0.056,0.015,75.526,19.734,131.282-36.021c35.327-35.329,22.695-54.62,22.695-54.62L94.039,342.626z"/>
</g>
</svg>
