<svg xmlns="http://www.w3.org/2000/svg" width="100" height="100" viewBox="0 0 500 500" fill="#223"><path d="M499.999 0c-.093-.021-177.077 25.773-273.116 121.811-27.871 27.872-58.146 68.786-82.778 104.951L16.052 256.879v53.494h82.354l91.219 91.221v82.354h53.495l30.118-128.054c36.165-24.634 77.08-54.909 104.952-82.78C474.226 177.077 500.021.092 499.999 0zM344.115 231.535c-20.89 20.89-54.762 20.89-75.651.002-20.892-20.894-20.89-54.762 0-75.654 20.892-20.889 54.761-20.891 75.653.002 20.888 20.888 20.888 54.761-.002 75.65z"/><path d="M94.039 342.626s-19.293-12.632-54.619 22.695C-16.337 421.077 3.382 496.548 3.396 496.604c.056.015 75.526 19.734 131.282-36.021 35.327-35.329 22.695-54.62 22.695-54.62l-63.334-63.337z"/></svg>