<svg xmlns="http://www.w3.org/2000/svg" fill="#223" width="100" height="100" viewBox="0 0 500 500"><path d="M495.135 58.964C353.727 55.291 260.774 11.831 250.483 6.81v-.479s-.173.088-.483.242c-.311-.154-.484-.242-.484-.242v.479C239.224 11.831 146.274 55.29 4.865 58.964c-19.494 183.239 21.443 284.604 89.67 356.731 64.049 67.707 145.271 77.009 154.981 77.894v.08s.172-.012.484-.038c.311.026.483.038.483.038v-.08c9.711-.885 90.933-10.187 154.98-77.894 68.228-72.127 109.165-173.492 89.672-356.731z"/><path fill="#FFF" d="M396.325 188.468l-39.073-39.072-117.217 117.215-65.121-65.12-39.073 39.074 104.193 104.194z"/></svg>