<svg xmlns="http://www.w3.org/2000/svg" width="100" height="100" viewBox="0 0 500 500" fill="#223"><path d="M100.732 241.696c-8.408.038-16.436.754-23.5 2.005-20.812 3.678-24.59 11.372-24.59 25.564v18.743h49.18v6.247H34.185c-14.292 0-26.806 8.592-30.723 24.934-4.515 18.732-4.716 30.421 0 49.982 3.496 14.561 11.846 24.934 26.138 24.934h16.909v-22.469c0-16.233 14.046-30.551 30.724-30.551h49.12c13.675 0 24.59-11.258 24.59-24.99v-46.83c0-13.327-11.241-23.339-24.59-25.564-8.447-1.405-17.213-2.043-25.621-2.005zM74.137 256.77c5.08 0 9.229 4.218 9.229 9.401 0 5.166-4.149 9.342-9.229 9.342-5.098 0-9.228-4.176-9.228-9.342 0-5.184 4.13-9.401 9.228-9.401z"/><path d="M157.076 294.256v21.84c0 16.931-14.355 31.181-30.724 31.181h-49.12c-13.456 0-24.59 11.518-24.59 24.991v46.828c0 13.329 11.588 21.169 24.59 24.993 15.567 4.577 30.495 5.405 49.12 0 12.381-3.585 24.59-10.8 24.59-24.993v-18.743h-49.12v-6.247h73.71c14.293 0 19.62-9.97 24.588-24.934 5.136-15.404 4.919-30.219 0-49.982-3.529-14.228-10.273-24.934-24.588-24.934h-18.456zm-27.625 118.592c5.098 0 9.225 4.179 9.225 9.344 0 5.187-4.127 9.4-9.225 9.4-5.082 0-9.232-4.214-9.232-9.4 0-5.166 4.151-9.344 9.232-9.344zM265.994 160.152l-106.559 63.274 137.975-9.361 10.625-139.128z"/><path fill="#FFF" d="M264.206 157.093l-106.56 63.273c-2.895 1.719-1.842 6.849 1.789 6.603l137.379-9.32.597-.041c2.043-.139 3.389-1.514 3.543-3.543L311.51 75.853l.069-.917c.266-3.478-5.068-4.898-6.603-1.789l-42.041 85.216c-2.015 4.083 4.097 7.675 6.119 3.577l42.041-85.216-6.603-1.789-10.556 138.212-.069.917 3.543-3.543-137.379 9.32-.597.041 1.789 6.603 106.559-63.273c3.925-2.331.363-8.458-3.576-6.119z"/><path d="M297.637 213.968l-11.86-81.851-32.301 42.653z"/><path fill="#FFF" d="M301.054 213.026l-11.859-81.851c-.498-3.436-4.898-2.93-6.477-.847l-32.302 42.653c-.908 1.199-.526 3.335.554 4.294l44.161 39.198c3.405 3.022 8.436-1.971 5.012-5.011l-44.161-39.198.554 4.294 32.302-42.653-6.477-.847 11.859 81.851c.653 4.51 7.481 2.586 6.834-1.883z"/><path d="M297.799 213.968l-86.884-6.82-51.019 16.102z"/><path fill="#FFF" d="M297.799 210.425l-74.59-5.854-11.763-.923c-2.556-.201-5.547 1.371-7.911 2.117l-41.06 12.959-3.521 1.111c-3.678 1.161-3.193 7.238.942 6.96l137.306-9.242.597-.04c4.534-.306 4.564-7.395 0-7.088l-137.307 9.242-.596.04.942 6.96a452724.519 452724.519 0 0 0 50.22-15.85c1.692-.534-1.044-.196.574-.069l4.739.372 79.691 6.255 1.735.136c4.561.359 4.526-6.731.002-7.086z"/><path d="M160.018 223.267l21.705-71.102-47.762 10.21z"/><path fill="#FFF" d="M163.435 224.208l21.705-71.102c.831-2.719-1.823-4.901-4.358-4.358l-47.762 10.21c-2.459.525-2.958 3.241-2.118 5.205l26.057 60.891c1.793 4.19 7.896.576 6.119-3.577l-26.057-60.891-2.118 5.205 47.762-10.21-4.358-4.358-21.705 71.102c-1.338 4.382 5.502 6.241 6.833 1.883z"/><path d="M253.465 175.007l-19.97-78.225-57.152 53.572z"/><path fill="#FFF" d="M256.882 174.065L236.911 95.84c-.679-2.66-4.023-3.343-5.922-1.563l-57.152 53.571c-2.024 1.896-.882 5.14 1.563 5.922l77.122 24.654c4.366 1.396 6.22-5.447 1.885-6.833l-77.123-24.654 1.563 5.922 57.152-53.571-5.922-1.563 19.97 78.225c1.131 4.425 7.966 2.546 6.835-1.885z"/><path d="M303.506 97.884l-54.024-44.123-15.044 48.635z"/><path fill="#FFF" d="M306.012 95.379l-54.024-44.124c-2.057-1.68-5.081-1.157-5.922 1.563l-15.044 48.635c-.652 2.106 1.145 4.634 3.417 4.485l69.068-4.511c4.536-.296 4.564-7.385 0-7.087l-69.068 4.511 3.417 4.485L252.9 54.701l-5.922 1.563c18.006 14.71 36.014 29.418 54.022 44.126 3.508 2.864 8.553-2.119 5.012-5.011z"/><path d="M278.242 38.029l-31.775 17.558-20.046-17.793z"/><path fill="#FFF" d="M276.454 34.969a908315.68 908315.68 0 0 0-31.775 17.559l4.294.554-20.046-17.793-2.505 6.049 51.821.234c4.571.021 4.568-7.066 0-7.087l-51.821-.234c-2.962-.013-4.865 3.954-2.505 6.049l20.046 17.793c1.223 1.085 2.831 1.363 4.294.554l31.774-17.559c3.999-2.21.425-8.331-3.577-6.119z"/><path d="M121.395 186.226l13.311-24.276-10.769-28.917z"/><path fill="#FFF" d="M124.455 188.015l7.604-13.867 4.443-8.103c.788-1.437 2.249-3.354 1.607-5.076l-10.755-28.879c-1.383-3.714-6.763-3.186-6.96.942l-2.542 53.193c-.218 4.57 6.869 4.549 7.087 0l2.542-53.193-6.96.942 10.769 28.917.357-2.73-13.311 24.276c-2.199 4.009 3.921 7.585 6.119 3.578z"/><path d="M123.22 132.117l10.835 30.729 47.071-10.56 53.745-49.947 15.166-48.174-23.883-16.862-40.598 15.194c-12.793 11.898-37.615 35.438-38.51 35.882-.885.453-16.389 29.758-23.826 43.738z"/><path fill="#FFF" d="M119.804 133.059l10.835 30.729c.666 1.888 2.371 2.921 4.358 2.475l35.998-8.076c3.361-.754 9.938-.887 12.637-3.396l6.951-6.459 33.501-31.134 11.814-10.979c1.982-1.843 2.596-3.593 3.405-6.162l14.151-44.95c.506-1.605-.353-3.101-1.628-4.001l-14.369-10.145c-2.531-1.787-8.887-8.331-12.488-6.983L188.72 47.544l-4.077 1.526c-3.683 1.378-7.212 6.169-10.051 8.831-7.587 7.114-15.151 14.253-22.757 21.346-2.121 1.978-4.237 3.962-6.404 5.89-1.426 1.269.731-.672-.96.799-.68.592-1.194 1.653-1.653 2.421-4.469 7.484-8.44 15.292-12.547 22.977-3.381 6.326-6.742 12.663-10.11 18.996-2.145 4.033 3.973 7.613 6.119 3.577 7.276-13.681 14.36-27.497 22.06-40.947.415-.725.84-1.444 1.285-2.151.36-.571-1.875 1.49.135-.075 1.548-1.205 2.951-2.64 4.388-3.969 5.967-5.516 11.875-11.098 17.797-16.662 3.162-2.971 6.325-5.941 9.49-8.908 1.432-1.342 2.866-2.683 4.3-4.022.957-.894 1.81-1.649 1.008-1.349l11.957-4.475 28.397-10.628-2.73-.357 23.883 16.862-1.628-4.001-11.056 35.117-4.103 13.032c.767-2.437.649-1.303-.845.086l-5.203 4.834-33.501 31.134-11.814 10.979c-1.612 1.499-1.947.919-.019.486l-5.042 1.131-41.926 9.406c1.453.825 2.906 1.649 4.358 2.475l-10.835-30.729c-1.508-4.28-8.356-2.438-6.832 1.883z"/><path d="M161.263 76.915c27.723-27.488 63.461-43.729 77.178-29.889 13.707 13.836-.829 47.468-28.554 74.947-27.723 27.478-63.019 44.612-76.726 30.773-13.715-13.827.377-48.351 28.102-75.831z"/><path fill="#FFF" d="M163.768 79.42c9.89-9.706 20.792-18.249 32.919-24.99 8.953-4.977 19.346-9.35 29.784-8.831 23.745 1.183 10.238 33.686 3.899 44.713-13.553 23.576-35.598 43.917-59.611 56.512-8.3 4.354-18.856 8.753-28.433 6.876-8.305-1.627-11.088-9.482-10.904-17.079.229-9.466 4.543-18.812 9.006-26.952 6.149-11.212 14.334-21.222 23.34-30.249 3.23-3.237-1.78-8.249-5.011-5.011-16.111 16.147-32.419 37.599-34.365 61.159-.63 7.629 1.558 15.735 7.528 20.824 6.218 5.3 14.75 5.333 22.373 3.98 10.87-1.928 21.196-7.587 30.39-13.451 11.505-7.337 21.988-16.384 31.407-26.227 14.852-15.521 31.638-37.816 31.098-60.486-.171-7.168-3.201-13.558-8.9-17.9-5.896-4.492-14.195-4.254-21.103-3.147-22.231 3.561-42.86 19.97-58.427 35.249-3.266 3.204 1.747 8.213 5.01 5.01z"/><path d="M160.018 223.24l21.533-71.331 71.518 22.977c-25.856 24.247-54.618 44.745-93.051 48.354z"/><path fill="#FFF" d="M163.435 224.182l21.533-71.331-4.358 2.475 71.517 22.977-1.563-5.922c-25.568 23.884-54.875 43.728-90.545 47.316-4.502.453-4.546 7.544 0 7.087 37.681-3.792 68.484-24.104 95.556-49.393 2.029-1.896.876-5.138-1.563-5.922l-71.518-22.977c-1.873-.602-3.819.687-4.358 2.475l-21.533 71.331c-1.326 4.386 5.515 6.246 6.832 1.884z"/><path d="M234.965 102.198l18.359 72.725c21.602-22.713 40.987-47.13 50.482-77.33l-68.841 4.605z"/><path fill="#FFF" d="M231.549 103.14l18.359 72.725c.644 2.551 4.103 3.483 5.922 1.563 21.822-23.019 41.569-48.32 51.394-78.893.675-2.101-1.163-4.636-3.417-4.485l-68.841 4.604c-4.535.304-4.564 7.392 0 7.087l68.841-4.604-3.417-4.485c-9.442 29.385-28.608 53.654-49.571 75.766l5.922 1.563-18.359-72.725c-1.118-4.429-7.952-2.549-6.833 1.884z"/><path d="M303.616 97.959c7.352-22.175 9.046-53.986-25.601-59.892l-28.43 15.702 54.031 44.19z"/><path fill="#FFF" d="M307.033 98.901c6.581-20.196 7.912-46.306-12.628-58.851-2.682-1.638-5.688-2.792-8.658-3.779-2.513-.835-6.993-2.659-9.52-1.264l-7.114 3.929-21.316 11.772c-1.86 1.028-2.484 4.12-.717 5.565l54.03 44.19c3.506 2.867 8.551-2.116 5.012-5.011l-54.031-44.19-.717 5.565 28.43-15.702-2.73.357c12.727 2.337 22.819 8.896 26.198 21.856 2.866 10.995.369 23.118-3.072 33.677-1.421 4.36 5.423 6.211 6.833 1.886z"/><path d="M121.395 185.906c1.019 36.599 27.422 37.144 38.67 37.466l-25.979-60.675-12.691 23.209z"/><path fill="#FFF" d="M117.852 185.906c.526 13.666 4.514 27.218 16.54 34.965 7.583 4.884 16.888 5.793 25.674 6.044 2.956.084 4.053-3.012 3.06-5.332l-25.979-60.675c-1.064-2.484-4.949-2.139-6.119 0l-12.691 23.209c-2.193 4.011 3.926 7.587 6.119 3.577l12.691-23.209h-6.119l25.979 60.675 3.06-5.332c-7.127-.204-14.249-.843-20.662-4.238-10.876-5.757-14.025-18.268-14.465-29.685-.177-4.554-7.264-4.571-7.088.001z"/><path d="M235.067 102.311c16.6 10.203 50.047 30.691 50.727 31.069 1.054.593 14.425-22.542 17.457-35.617l-68.184 4.548z"/><path fill="#FFF" d="M233.279 105.37c16.504 10.143 33.005 20.293 49.555 30.362 5.664 3.446 8.607-3.635 11.013-7.787 5.261-9.08 10.299-19.004 12.821-29.241.52-2.112-1.048-4.643-3.417-4.485l-68.184 4.548c-4.535.303-4.564 7.391 0 7.087l68.184-4.548-3.417-4.485c-2.228 9.042-6.58 17.563-11.051 25.679-1.446 2.625-3.003 5.665-4.855 7.902-.552.666 5.162.837 2.806-.592a17003.842 17003.842 0 0 1-49.877-30.559c-3.906-2.4-7.463 3.731-3.578 6.119z"/><path d="M181.525 151.909l28.787 55.542c17.022-9.232 30.351-20.48 42.559-32.527l-71.346-23.015z"/><path fill="#FFF" d="M178.466 153.697l28.787 55.542c.905 1.747 3.223 2.165 4.848 1.271 16.062-8.831 30.229-20.27 43.276-33.082 1.971-1.935.924-5.12-1.563-5.922l-71.346-23.014c-4.362-1.407-6.214 5.437-1.884 6.833l71.345 23.014-1.563-5.922c-12.638 12.409-26.282 23.419-41.842 31.973l4.848 1.271-28.787-55.542c-2.104-4.057-8.219-.473-6.119 3.578z"/><path d="M133.969 162.771l-4.078 48.569c7.695 10.512 18.284 11.426 29.391 10.605-8.034-19.996-24.083-59.985-25.313-59.174z"/><path fill="#FFF" d="M130.426 162.771l-3.141 37.41c-.299 3.567-2.333 10.521.101 13.665 7.963 10.286 19.521 12.47 31.896 11.644 2.066-.138 4.333-2.204 3.417-4.485-5.395-13.427-10.786-26.857-16.385-40.201-2.148-5.12-4.308-10.241-6.656-15.273-.981-2.103-2.608-6.7-5.688-6.302-4.467.578-4.523 7.671 0 7.087-1.054.136-2.656-1.457-2.358-.984.31.49.569 1.016.835 1.531.866 1.675 1.635 3.402 2.409 5.12 2.272 5.04 4.4 10.145 6.523 15.249 4.928 11.846 9.705 23.754 14.488 35.658l3.417-4.485c-10.687.714-19.969-.633-26.886-9.567l1.038 2.505a794645.6 794645.6 0 0 1 4.078-48.569c.381-4.56-6.709-4.523-7.088-.003z"/><path d="M249.415 53.892l57.19 8.025c-3.052-12.934-12.425-21.279-28.403-23.889l-28.787 15.864z"/><path fill="#FFF" d="M248.473 57.309c19.063 2.675 38.126 5.351 57.19 8.025 2.612.367 5.089-1.494 4.359-4.358-2.193-8.612-6.997-15.567-14.429-20.464-4.894-3.224-14.749-7.984-20.324-4.912l-27.643 15.233c-4.002 2.206-.428 8.326 3.577 6.119l28.787-15.863-2.73.357c12.591 2.232 22.644 8.512 25.929 21.414l4.359-4.358c-19.063-2.675-38.127-5.351-57.191-8.025-4.467-.628-6.394 6.199-1.884 6.832z"/><path d="M327.043 384.295s-13.22 7.687 9.406 10.289c27.413 3.127 41.421 2.679 71.628-3.039 0 0 7.942 4.979 19.034 9.292-67.718 29.023-153.257-1.681-100.068-16.542M318.768 346.422s-14.826 10.974 7.814 13.317c29.284 3.02 52.408 3.268 92.421-4.438 0 0 5.535 5.611 14.24 8.68-81.876 23.941-173.07 1.889-114.475-17.559M388.525 282.177c16.686 19.21-4.384 36.497-4.384 36.497s42.367-21.87 22.91-49.259c-18.173-25.542-32.109-38.231 43.337-81.988.001 0-118.423 29.577-61.863 94.75"/><path d="M478.088 412.308s9.782 8.061-10.773 14.297c-39.088 11.84-162.688 15.417-197.022.471-12.343-5.368 10.804-12.821 18.084-14.385 7.595-1.646 11.933-1.339 11.933-1.339-13.727-9.67-88.721 18.987-38.094 27.192 138.068 22.392 251.684-10.082 215.872-26.236M333.398 307.182s-62.87 14.933-22.265 20.355c17.146 2.295 51.325 1.775 83.161-.892 26.017-2.194 52.145-6.86 52.145-6.86s-9.174 3.928-15.812 8.462c-63.843 16.789-187.179 8.979-151.672-8.197 30.026-14.514 54.443-12.868 54.443-12.868M446.18 370.222c64.9-33.724 34.895-66.133 13.948-61.768-5.134 1.068-7.423 1.996-7.423 1.996s1.906-2.986 5.545-4.278c41.436-14.566 73.304 42.963-13.375 65.751 0 0 1.005-.898 1.305-1.701M407.052 116.775s35.941 35.954-34.092 91.244c-56.159 44.351-12.804 69.639-.023 98.531-32.778-29.576-56.837-55.614-40.698-79.846 23.689-35.57 89.314-52.817 74.813-109.929"/><path d="M339.776 461.609c62.297 3.987 157.958-2.213 160.224-31.689 0 0-4.354 11.173-51.485 20.048-53.169 10.007-118.749 8.839-157.645 2.426 0-.002 7.964 6.588 48.906 9.215"/></svg>