<svg xmlns="http://www.w3.org/2000/svg" xmlns:xlink="http://www.w3.org/1999/xlink" viewBox="0 0 1712.82 469"><defs><style>.cls-1{fill:url(#linear-gradient);}.cls-2{fill:url(#linear-gradient-2);}.cls-3{fill:url(#linear-gradient-3);}.cls-4{fill:url(#linear-gradient-4);}.cls-5{fill:url(#linear-gradient-5);}.cls-6{fill:url(#linear-gradient-6);}</style><linearGradient id="linear-gradient" x1="270.38" y1="-62.38" x2="1616.65" y2="1283.88" gradientUnits="userSpaceOnUse"><stop offset="0" stop-color="#1e34f9"/><stop offset="0.51" stop-color="#67b5fb"/><stop offset="1" stop-color="#6dc172"/></linearGradient><linearGradient id="linear-gradient-2" x1="618.2" y1="-410.2" x2="1964.47" y2="936.06" xlink:href="#linear-gradient"/><linearGradient id="linear-gradient-3" x1="778.1" y1="-570.1" x2="2124.37" y2="776.16" xlink:href="#linear-gradient"/><linearGradient id="linear-gradient-4" x1="488.59" y1="-280.59" x2="1834.86" y2="1065.67" xlink:href="#linear-gradient"/><linearGradient id="linear-gradient-5" x1="411.26" y1="-203.26" x2="1757.53" y2="1143" xlink:href="#linear-gradient"/><linearGradient id="linear-gradient-6" x1="83.95" y1="124.05" x2="1430.22" y2="1470.31" xlink:href="#linear-gradient"/></defs><g id="Layer_2" data-name="Layer 2"><g id="Layer_1-2" data-name="Layer 1"><path class="cls-1" d="M595.79,469c-35.37,0-75.29-12.2-115.44-35.29a13.6,13.6,0,0,1-5-18.59l15.13-30.48a13.64,13.64,0,0,1,11.77-6.78,13.11,13.11,0,0,1,7.06,2c33.08,21.19,58.39,28.83,84.81,28.83,45.84,0,73.43-28,73.43-70.24-14.39,12.9-31.33,27.7-62.55,27.7-71.22,0-129.16-59.15-129.16-131.86S533.82,102.39,605,102.39c22.11,0,39.1,7,65.49,28,.65-6.89-2.92-23.75,7.11-23.75h42.9a13.61,13.61,0,0,1,13.6,13.6V231.49l0,.81c0,.65.05,1.29.05,1.95s0,1.3-.05,1.95l0,1v44.53C734.4,356.87,726,400,694,432.71,670.42,456.75,632.1,469,595.8,469ZM605,166.08c-34.51,0-62.59,30.58-62.59,68.17s28.08,68.17,62.59,68.17c33.68,0,61.74-29.83,62.55-66.5v-3.49C666.78,195.91,638.72,166.08,605,166.08Z"/><path class="cls-2" d="M1294.49,365.23c-18.67,0-42.76-8.42-65-28.37,0,10.45,2.37,25.23-11.23,25.23h-39.38a13.61,13.61,0,0,1-13.6-13.6V13.59A13.61,13.61,0,0,1,1178.92,0h39.38a13.61,13.61,0,0,1,13.6,13.59V128.8c21.58-21.58,45.63-27.29,62.59-27.29,71.22,0,129.16,59.15,129.16,131.86S1365.71,365.23,1294.49,365.23Zm0-200c-34.52,0-62.59,30.58-62.59,68.17s28.07,68.17,62.59,68.17,62.59-30.58,62.59-68.17S1329,165.2,1294.49,165.2Z"/><path class="cls-3" d="M1580.81,364.46c-72.8,0-132-59.15-132-131.86s59.22-131.86,132-131.86,132,59.15,132,131.86S1653.6,364.46,1580.81,364.46Zm0-199.78c-36.09,0-65.45,30.47-65.45,67.92s29.36,67.92,65.45,67.92,65.44-30.47,65.44-67.92S1616.89,164.68,1580.81,164.68Z"/><path class="cls-4" d="M1002.55,365.23c-72.79,0-132-59.15-132-131.86s59.22-131.86,132-131.86,132,59.15,132,131.86S1075.34,365.23,1002.55,365.23Zm0-199.78c-36.09,0-65.44,30.47-65.44,67.92s29.35,67.92,65.44,67.92S1068,270.82,1068,233.37,1038.64,165.45,1002.55,165.45Z"/><path class="cls-5" d="M789.35,365.22c-8.17,0-16.89-5.84-16.89-22.21V23.33c0-20.61,12.61-22.21,16.48-22.21a24.43,24.43,0,0,1,9.16,2L822.55,14c11.85,5.52,17.31,15,17.31,29.91V322c0,14.65-5.43,24.12-17.08,29.81L798.1,363.26A24,24,0,0,1,789.35,365.22Z"/><path class="cls-6" d="M0,231.36C0,125.91,85.9,40,191.33,40s191.73,85.89,191.73,191.34c0,105.82-86.29,191.71-191.73,191.71S0,337.18,0,231.36Zm322.09,90.48c12.26-1.14,18.39-4.21,19.94-16.86C344,280.81,344,256.27,344,231.36c0-24.54,0-49.08-1.92-73.25-1.55-12.65-7.68-15.71-19.94-16.86-41.79-4.6-87-5.76-130.76-5.76s-89,1.16-131.13,5.76c-11.89,1.15-18,4.21-19.56,16.86-2.29,24.17-2.29,48.71-2.29,73.25,0,24.91,0,49.45,2.29,73.62,1.54,12.65,7.67,15.72,19.56,16.86,42.17,4.6,87.43,5.76,131.13,5.76S280.3,326.44,322.09,321.84ZM113.88,231.36a77.45,77.45,0,1,1,154.9,0c0,42.56-33.74,77.83-77.45,77.83S113.88,273.92,113.88,231.36Z"/></g></g></svg>